Coordinates
version=1
nRows=34
nColumns=38
inDegrees=no

Units are S.I. units (second, meters, Newtons, ...)
If the header above contains a line with 'inDegrees', this indicates whether rotational values are in degrees (yes) or radians (no).

endheader
time	pelvis_tilt	pelvis_list	pelvis_rotation	pelvis_tx	pelvis_ty	pelvis_tz	hip_flexion_r	hip_adduction_r	hip_rotation_r	knee_angle_r	ankle_angle_r	subtalar_angle_r	mtp_angle_r	hip_flexion_l	hip_adduction_l	hip_rotation_l	knee_angle_l	ankle_angle_l	subtalar_angle_l	mtp_angle_l	lumbar_extension	lumbar_bending	lumbar_rotation	arm_flex_r	arm_add_r	arm_rot_r	elbow_flex_r	pro_sup_r	wrist_flex_r	wrist_dev_r	arm_flex_l	arm_add_l	arm_rot_l	elbow_flex_l	pro_sup_l	wrist_flex_l	wrist_dev_l
0	-0.175627	1.24333	-1.2783	0.566866	2.37119	1.01441	0.153749	0.104544	-0.244805	0.350192	-0.190935	0	0	-0.409987	-0.0621205	-0.20807	0.357352	-0.0878919	0	0	-0.540656	0.288503	0.250984	-0.130375	-0.548335	-0.241599	1.81599	0.534365	0	0	0.522757	-0.402204	0.437061	1.08462	0.665387	0	0
0.01	-0.170179	1.2473	-1.28042	0.567059	2.36307	1.01285	0.158142	0.101113	-0.265391	0.317744	-0.190398	0	0	-0.414333	-0.0619662	-0.197774	0.35878	-0.0852919	0	0	-0.534621	0.28591	0.254204	-0.137825	-0.5446	-0.252131	1.81569	0.538014	0	0	0.532712	-0.395588	0.44706	1.07471	0.663216	0	0
0.02	-0.121938	1.24098	-1.32875	0.566457	2.35429	1.01408	0.144157	0.0882313	-0.28577	0.28447	-0.193274	0	0	-0.406152	-0.0575127	-0.244888	0.446604	-0.0790764	0	0	-0.544965	0.269443	0.25318	-0.138276	-0.537524	-0.255764	1.81225	0.537049	0	0	0.539363	-0.394377	0.451547	1.06929	0.665217	0	0
0.03	-0.123039	1.24355	-1.32545	0.566531	2.34491	1.01264	0.145953	0.0890165	-0.300264	0.261013	-0.194349	0	0	-0.4117	-0.0605651	-0.248611	0.452055	-0.0725463	0	0	-0.540178	0.270462	0.253371	-0.142425	-0.534243	-0.260099	1.81257	0.537484	0	0	0.540712	-0.392578	0.454196	1.06652	0.665626	0	0
0.04	-0.12258	1.24469	-1.3214	0.566973	2.33547	1.01132	0.145485	0.089288	-0.311951	0.242386	-0.194771	0	0	-0.418665	-0.063825	-0.250354	0.456825	-0.0676205	0	0	-0.536851	0.272898	0.252111	-0.147169	-0.531982	-0.264939	1.81364	0.53874	0	0	0.541995	-0.390374	0.456526	1.0638	0.666691	0	0
0.05	-0.120973	1.24544	-1.31808	0.567375	2.32611	1.01008	0.145697	0.0887558	-0.319	0.233541	-0.193835	0	0	-0.425525	-0.0670133	-0.251607	0.462098	-0.064574	0	0	-0.534402	0.275028	0.250062	-0.150632	-0.530386	-0.268418	1.81384	0.539826	0	0	0.542797	-0.388363	0.457581	1.06228	0.667606	0	0
0.06	-0.11862	1.24548	-1.31359	0.568125	2.31672	1.0089	0.145681	0.0868965	-0.325666	0.233053	-0.192096	0	0	-0.432075	-0.0709784	-0.252158	0.469295	-0.0613962	0	0	-0.532567	0.278356	0.246153	-0.15359	-0.52925	-0.271688	1.8138	0.540757	0	0	0.542932	-0.385921	0.457375	1.06133	0.667706	0	0
0.07	-0.114843	1.24466	-1.31069	0.568699	2.30741	1.0078	0.145087	0.0851354	-0.32534	0.239953	-0.190195	0	0	-0.438886	-0.0751142	-0.252868	0.477764	-0.0582552	0	0	-0.531828	0.281297	0.240829	-0.153594	-0.528244	-0.272216	1.81215	0.541419	0	0	0.542576	-0.385223	0.456538	1.06125	0.6685	0	0
0.08	-0.111551	1.24299	-1.30792	0.5691	2.29811	1.00675	0.144443	0.0837445	-0.321668	0.254501	-0.188665	0	0	-0.446029	-0.079729	-0.253532	0.487193	-0.0559104	0	0	-0.532393	0.284386	0.235511	-0.151611	-0.524242	-0.271279	1.80871	0.551922	0	0	0.541955	-0.385395	0.45523	1.0621	0.66962	0	0
0.09	-0.107559	1.24156	-1.30361	0.570068	2.28858	1.00565	0.144696	0.0804711	-0.320711	0.27751	-0.186019	0	0	-0.452467	-0.084555	-0.250744	0.497193	-0.0533645	0	0	-0.5317	0.289052	0.227851	-0.150873	-0.526417	-0.271416	1.80797	0.549133	0	0	0.540444	-0.385406	0.453816	1.06311	0.672351	0	0
0.1	-0.104793	1.24008	-1.2979	0.570982	2.27894	1.00451	0.144985	0.0776753	-0.318688	0.305884	-0.181365	0	0	-0.458515	-0.0901275	-0.244985	0.5076	-0.0503635	0	0	-0.530918	0.294443	0.219321	-0.148017	-0.518546	-0.272391	1.80419	0.589788	0	0	0.537945	-0.3858	0.450889	1.06478	0.674396	0	0
0.11	-0.104143	1.23765	-1.29099	0.571642	2.26911	1.00342	0.143226	0.0768557	-0.314923	0.336684	-0.178779	0	0	-0.465276	-0.0969496	-0.240123	0.519578	-0.0478727	0	0	-0.531557	0.299942	0.213299	-0.148285	-0.521706	-0.270521	1.80432	0.571549	0	0	0.537527	-0.38697	0.452407	1.06638	0.675623	0	0
0.12	-0.104345	1.23418	-1.2835	0.572114	2.25899	1.00244	0.137534	0.0784175	-0.309613	0.36541	-0.179448	0	0	-0.473493	-0.104691	-0.235386	0.531705	-0.0470033	0	0	-0.533103	0.305372	0.20899	-0.150472	-0.522462	-0.271786	1.80512	0.565142	0	0	0.538365	-0.388011	0.45613	1.06709	0.677359	0	0
0.13	-0.105649	1.22984	-1.27449	0.572427	2.24867	1.00155	0.129418	0.0813509	-0.30818	0.391379	-0.181299	0	0	-0.482362	-0.11375	-0.230069	0.544649	-0.0469036	0	0	-0.53526	0.311292	0.204793	-0.153404	-0.524844	-0.274017	1.80736	0.55455	0	0	0.539126	-0.388511	0.459024	1.06763	0.677052	0	0
0.14	-0.10854	1.2224	-1.26305	0.57275	2.23848	1.00105	0.118157	0.0842549	-0.316947	0.40816	-0.186998	0	0	-0.493536	-0.12469	-0.22327	0.558512	-0.0473525	0	0	-0.540958	0.319309	0.199713	-0.153598	-0.522816	-0.275731	1.80815	0.558928	0	0	0.540017	-0.390052	0.461571	1.06859	0.676224	0	0
0.15	-0.11553	1.21559	-1.24992	0.572996	2.22833	1.00084	0.109482	0.086547	-0.326982	0.414914	-0.19141	0	0	-0.502795	-0.135697	-0.218556	0.574753	-0.0487263	0	0	-0.546629	0.327656	0.198128	-0.15481	-0.52177	-0.278415	1.8086	0.561227	0	0	0.541182	-0.388509	0.462967	1.06734	0.676541	0	0
0.16	-0.124013	1.20675	-1.23663	0.573119	2.2184	1.00117	0.0988446	0.0905675	-0.339723	0.414517	-0.208696	0	0	-0.512403	-0.147632	-0.21533	0.594425	-0.0516347	0	0	-0.555377	0.336797	0.19827	-0.154741	-0.521062	-0.280819	1.80873	0.559481	0	0	0.542982	-0.387523	0.465548	1.0659	0.674663	0	0
0.17	-0.134045	1.19947	-1.22529	0.572794	2.20844	1.00169	0.0905669	0.0965818	-0.347068	0.419367	-0.229727	0	0	-0.518294	-0.159195	-0.215781	0.619553	-0.0563587	0	0	-0.563482	0.34439	0.201226	-0.153573	-0.51572	-0.283222	1.80672	0.572474	0	0	0.544782	-0.386938	0.468523	1.06369	0.674612	0	0
0.18	-0.148561	1.19778	-1.21384	0.571971	2.19799	1.00208	0.0900533	0.102885	-0.347318	0.433369	-0.251688	0	0	-0.515191	-0.170222	-0.222409	0.65147	-0.0644198	0	0	-0.565694	0.34956	0.206684	-0.153918	-0.514821	-0.285566	1.80577	0.570644	0	0	0.544385	-0.385855	0.47024	1.06077	0.674507	0	0
0.19	-0.177467	1.20363	-1.19344	0.570459	2.18694	1.00187	0.103102	0.111533	-0.336036	0.45874	-0.261302	0	0	-0.499462	-0.184074	-0.236237	0.692858	-0.0753109	0	0	-0.558714	0.354442	0.21671	-0.155414	-0.501726	-0.291082	1.80062	0.623231	0	0	0.541997	-0.383826	0.471639	1.05549	0.678149	0	0
0.2	-0.244626	1.21172	-1.1458	0.566192	2.17625	1.00094	0.127467	0.139961	-0.291999	0.488754	-0.257356	0	0	-0.47237	-0.213594	-0.266235	0.749784	-0.0864287	0	0	-0.538493	0.363874	0.208064	-0.116013	-0.500575	-0.24333	1.76646	0.626283	0	0	0.517775	-0.400802	0.448558	1.05762	0.678227	0	0
0.21	-0.274023	1.21465	-1.12332	0.564837	2.16556	1.001	0.137987	0.151029	-0.273835	0.516185	-0.256299	0	0	-0.4514	-0.230225	-0.272914	0.801555	-0.101995	0	0	-0.534683	0.369595	0.218695	-0.121872	-0.499062	-0.247058	1.76755	0.62526	0	0	0.518187	-0.398807	0.453304	1.0538	0.673686	0	0
0.22	-0.285827	1.2135	-1.11395	0.563822	2.15543	1.00196	0.137643	0.158748	-0.260488	0.53352	-0.256865	0	0	-0.432085	-0.236687	-0.255043	0.851905	-0.12077	0	0	-0.53787	0.37234	0.226596	-0.128669	-0.497605	-0.252793	1.77112	0.621434	0	0	0.522581	-0.398233	0.461741	1.05086	0.670183	0	0
0.23	-0.297306	1.20988	-1.10285	0.562962	2.14541	1.003	0.131153	0.168181	-0.252515	0.540877	-0.255778	0	0	-0.411893	-0.24433	-0.232951	0.905333	-0.14124	0	0	-0.543194	0.3769	0.233948	-0.136704	-0.497112	-0.259332	1.77719	0.616126	0	0	0.527797	-0.39878	0.471244	1.04941	0.667079	0	0
0.24	-0.310771	1.20597	-1.09023	0.562235	2.13536	1.00387	0.122312	0.178772	-0.246305	0.543396	-0.253491	0	0	-0.389911	-0.251997	-0.210485	0.960489	-0.161079	0	0	-0.547972	0.382464	0.242167	-0.145899	-0.498032	-0.26597	1.78471	0.609163	0	0	0.532269	-0.39865	0.479626	1.04912	0.662095	0	0
0.25	-0.326799	1.20339	-1.07659	0.561467	2.1253	1.00445	0.114072	0.190756	-0.236543	0.544466	-0.24982	0	0	-0.365138	-0.258825	-0.189672	1.01568	-0.174411	0	0	-0.550926	0.387946	0.251562	-0.155595	-0.500176	-0.27207	1.79271	0.600618	0	0	0.535405	-0.397802	0.485927	1.04984	0.656256	0	0
0.26	-0.343772	1.20201	-1.06336	0.560607	2.11532	1.00483	0.107397	0.20363	-0.222368	0.5466	-0.243846	0	0	-0.339107	-0.264434	-0.169632	1.06897	-0.179303	0	0	-0.552531	0.392619	0.261616	-0.164843	-0.50345	-0.276972	1.80011	0.59068	0	0	0.537796	-0.397599	0.491602	1.05156	0.653629	0	0
0.27	-0.358759	1.20036	-1.05283	0.559671	2.10555	1.00523	0.101018	0.216431	-0.208792	0.549996	-0.23674	0	0	-0.314154	-0.268709	-0.149932	1.11972	-0.173304	0	0	-0.554674	0.396089	0.271936	-0.17276	-0.5073	-0.280742	1.80613	0.579477	0	0	0.540173	-0.398153	0.497059	1.05421	0.653582	0	0
0.28	-0.36765	1.19794	-1.04908	0.558681	2.09596	1.00594	0.0930302	0.227702	-0.193619	0.554045	-0.231076	0	0	-0.292115	-0.270562	-0.132127	1.16582	-0.158733	0	0	-0.55897	0.397172	0.281938	-0.178768	-0.51253	-0.284305	1.81164	0.567253	0	0	0.54124	-0.398419	0.498749	1.05861	0.652212	0	0
0.29	-0.372139	1.19621	-1.05158	0.557675	2.0864	1.0069	0.084939	0.236513	-0.175889	0.559825	-0.219109	0	0	-0.271847	-0.26952	-0.11968	1.2071	-0.130699	0	0	-0.561392	0.396281	0.286557	-0.175876	-0.513493	-0.277871	1.80839	0.569595	0	0	0.536966	-0.400425	0.493585	1.06374	0.648533	0	0
0.3	-0.367192	1.19367	-1.06402	0.55673	2.07692	1.00836	0.0730928	0.241343	-0.159347	0.563768	-0.213227	0	0	-0.254892	-0.264136	-0.111567	1.24228	-0.108904	0	0	-0.56651	0.392005	0.291986	-0.174191	-0.518249	-0.274658	1.80717	0.559845	0	0	0.534358	-0.401882	0.490242	1.06771	0.649448	0	0
0.31	-0.356966	1.19026	-1.08226	0.555849	2.06758	1.01013	0.0582942	0.243966	-0.145322	0.565262	-0.211944	0	0	-0.23951	-0.255634	-0.106519	1.27389	-0.0904699	0	0	-0.573369	0.386131	0.297684	-0.170769	-0.515538	-0.271854	1.80263	0.569487	0	0	0.533349	-0.403757	0.489819	1.07016	0.650296	0	0
0.32	-0.346856	1.18922	-1.10159	0.554913	2.0582	1.01181	0.0455039	0.244748	-0.133103	0.567184	-0.197835	0	0	-0.221538	-0.245573	-0.104239	1.30351	-0.0622277	0	0	-0.577128	0.378601	0.302372	-0.166605	-0.517356	-0.26631	1.79736	0.565233	0	0	0.530862	-0.404877	0.486729	1.07074	0.655148	0	0
0.33	-0.335718	1.18899	-1.12204	0.55402	2.04888	1.0135	0.0324839	0.243742	-0.124386	0.567323	-0.190282	0	0	-0.202277	-0.235374	-0.103564	1.32989	-0.0434173	0	0	-0.580338	0.370112	0.308997	-0.16553	-0.519255	-0.264034	1.79378	0.556718	0	0	0.530783	-0.403595	0.486331	1.06898	0.653654	0	0
